Raleway-v4020-BoldItalic.ufo
<glyph name="exclam" format="2">
  <advance width="330"/>
  <unicode hex="0021"/>
  <outline>
    <contour>
      <point x="70" y="300" type="line"/>
      <point x="260" y="300" type="line"/>
      <point x="348" y="717" type="line"/>
      <point x="158" y="717" type="line"/>
    </contour>
    <contour>
      <point x="6" y="0" type="line"/>
      <point x="196" y="0" type="line"/>
      <point x="235" y="184" type="line"/>
      <point x="45" y="184" type="line"/>
    </contour>
  </outline>
</glyph>
<glyph name="zero" format="2">
  <advance width="595"/>
  <unicode hex="0030"/>
  <outline>
    <contour>
      <point x="111" y="-10"/>
      <point x="231" y="-10" type="curve" smooth="yes"/>
      <point x="400" y="-10"/>
      <point x="558" y="154"/>
      <point x="558" y="360" type="curve" smooth="yes"/>
      <point x="558" y="498"/>
      <point x="481" y="597"/>
      <point x="361" y="597" type="curve" smooth="yes"/>
      <point x="191" y="597"/>
      <point x="34" y="432"/>
      <point x="34" y="226" type="curve" smooth="yes"/>
      <point x="34" y="88"/>
    </contour>
    <contour>
      <point x="315" y="164"/>
      <point x="268" y="164" type="curve" smooth="yes"/>
      <point x="241" y="164"/>
      <point x="226" y="197"/>
      <point x="226" y="246" type="curve" smooth="yes"/>
      <point x="226" y="337"/>
      <point x="272" y="423"/>
      <point x="324" y="423" type="curve" smooth="yes"/>
      <point x="349" y="423"/>
      <point x="363" y="389"/>
      <point x="363" y="340" type="curve" smooth="yes"/>
      <point x="363" y="247"/>
    </contour>
  </outline>
</glyph>
<glyph name="five" format="2">
  <advance width="540"/>
  <unicode hex="0035"/>
  <outline>
    <contour>
      <point x="53" y="-149"/>
      <point x="152" y="-149" type="curve" smooth="yes"/>
      <point x="333" y="-149"/>
      <point x="474" y="-25"/>
      <point x="474" y="142" type="curve" smooth="yes"/>
      <point x="474" y="251"/>
      <point x="404" y="326"/>
      <point x="292" y="326" type="curve" smooth="yes"/>
      <point x="264" y="326"/>
      <point x="252" y="321"/>
      <point x="255" y="321" type="curve"/>
      <point x="279" y="398" type="line"/>
      <point x="481" y="398" type="line"/>
      <point x="518" y="571" type="line"/>
      <point x="179" y="571" type="line"/>
      <point x="118" y="424"/>
      <point x="65" y="276"/>
      <point x="5" y="129" type="curve"/>
      <point x="167" y="129" type="line"/>
      <point x="181" y="150"/>
      <point x="205" y="164"/>
      <point x="229" y="164" type="curve" smooth="yes"/>
      <point x="258" y="164"/>
      <point x="274" y="142"/>
      <point x="274" y="110" type="curve" smooth="yes"/>
      <point x="274" y="56"/>
      <point x="240" y="17"/>
      <point x="188" y="17" type="curve" smooth="yes"/>
      <point x="148" y="17"/>
      <point x="106" y="42"/>
      <point x="79" y="83" type="curve"/>
      <point x="-50" y="-37" type="line"/>
      <point x="-22" y="-108"/>
    </contour>
  </outline>
</glyph>
<glyph name="seven" format="2">
  <advance width="582"/>
  <unicode hex="0037"/>
  <outline>
    <contour>
      <point x="304" y="411" type="line"/>
      <point x="-55" y="-126" type="line"/>
      <point x="160" y="-126" type="line"/>
      <point x="640" y="584" type="line"/>
      <point x="92" y="584" type="line"/>
      <point x="55" y="411" type="line"/>
    </contour>
  </outline>
</glyph>
<glyph name="nine" format="2">
  <advance width="574"/>
  <unicode hex="0039"/>
  <outline>
    <contour>
      <point x="385" y="-155"/>
      <point x="167" y="-155" type="curve" smooth="yes"/>
      <point x="86" y="-155"/>
      <point x="20" y="-122"/>
      <point x="-29" y="-59" type="curve"/>
      <point x="102" y="63" type="line"/>
      <point x="128" y="28"/>
      <point x="164" y="9"/>
      <point x="205" y="9" type="curve" smooth="yes"/>
      <point x="262" y="9"/>
      <point x="306" y="51"/>
      <point x="325" y="122" type="curve"/>
      <point x="295" y="99"/>
      <point x="263" y="88"/>
      <point x="222" y="88" type="curve" smooth="yes"/>
      <point x="104" y="88"/>
      <point x="28" y="169"/>
      <point x="28" y="279" type="curve" smooth="yes"/>
      <point x="28" y="436"/>
      <point x="175" y="571"/>
      <point x="340" y="571" type="curve" smooth="yes"/>
      <point x="468" y="571"/>
      <point x="535" y="479"/>
      <point x="535" y="327" type="curve" smooth="yes"/>
      <point x="535" y="55"/>
    </contour>
    <contour>
      <point x="235" y="237"/>
      <point x="269" y="237" type="curve" smooth="yes"/>
      <point x="316" y="237"/>
      <point x="362" y="283"/>
      <point x="362" y="339" type="curve" smooth="yes"/>
      <point x="362" y="379"/>
      <point x="339" y="412"/>
      <point x="306" y="412" type="curve" smooth="yes"/>
      <point x="263" y="412"/>
      <point x="212" y="360"/>
      <point x="212" y="304" type="curve" smooth="yes"/>
      <point x="212" y="266"/>
    </contour>
  </outline>
</glyph>
<glyph name="colon" format="2">
  <advance width="299"/>
  <unicode hex="003A"/>
  <outline>
    <contour>
      <point x="80" y="335" type="line"/>
      <point x="234" y="335" type="line"/>
      <point x="273" y="519" type="line"/>
      <point x="119" y="519" type="line"/>
    </contour>
    <contour>
      <point x="9" y="0" type="line"/>
      <point x="163" y="0" type="line"/>
      <point x="202" y="184" type="line"/>
      <point x="48" y="184" type="line"/>
    </contour>
  </outline>
</glyph>
<glyph name="less" format="2">
  <advance width="554"/>
  <unicode hex="003C"/>
  <outline>
    <contour>
      <point x="28" y="298" type="line"/>
      <point x="28" y="210" type="line"/>
      <point x="452" y="-40" type="line"/>
      <point x="452" y="172" type="line"/>
      <point x="304" y="259" type="line"/>
      <point x="452" y="354" type="line"/>
      <point x="452" y="556" type="line"/>
    </contour>
  </outline>
</glyph>
<glyph name="T" format="2">
  <advance width="600"/>
  <unicode hex="0054"/>
  <anchor x="237" y="0" name="bottom"/>
  <anchor x="385" y="708" name="top"/>
  <outline>
    <contour>
      <point x="254" y="540" type="line"/>
      <point x="139" y="0" type="line"/>
      <point x="334" y="0" type="line"/>
      <point x="449" y="540" type="line"/>
      <point x="639" y="540" type="line"/>
      <point x="675" y="710" type="line"/>
      <point x="99" y="710" type="line"/>
      <point x="63" y="540" type="line"/>
    </contour>
  </outline>
</glyph>
<glyph name="W" format="2">
  <advance width="1002"/>
  <unicode hex="0057"/>
  <anchor x="582" y="708" name="top"/>
  <outline>
    <contour>
      <point x="69" y="710" type="line"/>
      <point x="181" y="0" type="line"/>
      <point x="342" y="0" type="line"/>
      <point x="487" y="254" type="line"/>
      <point x="526" y="0" type="line"/>
      <point x="687" y="0" type="line"/>
      <point x="1101" y="710" type="line"/>
      <point x="888" y="710" type="line"/>
      <point x="648" y="223" type="line"/>
      <point x="637" y="371" type="line"/>
      <point x="820" y="710" type="line"/>
      <point x="641" y="710" type="line"/>
      <point x="538" y="491" type="line"/>
      <point x="528" y="710" type="line"/>
      <point x="350" y="710" type="line"/>
      <point x="386" y="371" type="line"/>
      <point x="315" y="223" type="line"/>
      <point x="280" y="710" type="line"/>
    </contour>
  </outline>
</glyph>
<glyph name="X" format="2">
  <advance width="631"/>
  <unicode hex="0058"/>
  <outline>
    <contour>
      <point x="223" y="350" type="line"/>
      <point x="-66" y="0" type="line"/>
      <point x="145" y="0" type="line"/>
      <point x="297" y="214" type="line"/>
      <point x="358" y="0" type="line"/>
      <point x="568" y="0" type="line"/>
      <point x="428" y="350" type="line"/>
      <point x="727" y="710" type="line"/>
      <point x="517" y="710" type="line"/>
      <point x="355" y="486" type="line"/>
      <point x="288" y="710" type="line"/>
      <point x="77" y="710" type="line"/>
    </contour>
  </outline>
</glyph>
<glyph name="backslash" format="2">
  <advance width="663"/>
  <unicode hex="005C"/>
  <outline>
    <contour>
      <point x="316" y="710" type="line"/>
      <point x="106" y="710" type="line"/>
      <point x="369" y="0" type="line"/>
      <point x="578" y="0" type="line"/>
    </contour>
  </outline>
</glyph>
<glyph name="n" format="2">
  <advance width="601"/>
  <unicode hex="006E"/>
  <anchor x="240" y="0" name="bottom"/>
  <anchor x="353" y="522" name="top"/>
  <outline>
    <contour>
      <point x="96" y="526" type="line"/>
      <point x="-16" y="0" type="line"/>
      <point x="174" y="0" type="line"/>
      <point x="237" y="295" type="line"/>
      <point x="262" y="339"/>
      <point x="305" y="370"/>
      <point x="331" y="370" type="curve" smooth="yes"/>
      <point x="352" y="370"/>
      <point x="370" y="355"/>
      <point x="370" y="322" type="curve" smooth="yes"/>
      <point x="370" y="314"/>
      <point x="369" y="306"/>
      <point x="367" y="296" type="curve" smooth="yes"/>
      <point x="304" y="0" type="line"/>
      <point x="494" y="0" type="line"/>
      <point x="567" y="346" type="line" smooth="yes"/>
      <point x="571" y="367"/>
      <point x="575" y="392"/>
      <point x="575" y="417" type="curve" smooth="yes"/>
      <point x="575" y="477"/>
      <point x="552" y="536"/>
      <point x="455" y="536" type="curve" smooth="yes"/>
      <point x="369" y="536"/>
      <point x="297" y="505"/>
      <point x="250" y="448" type="curve"/>
      <point x="267" y="526" type="line"/>
    </contour>
  </outline>
</glyph>
<glyph name="o" format="2">
  <advance width="596"/>
  <unicode hex="006F"/>
  <anchor x="235" y="0" name="bottom"/>
  <anchor x="298" y="261" name="center"/>
  <anchor x="313" y="0" name="ogonek"/>
  <anchor x="346" y="522" name="top"/>
  <anchor x="518" y="447" name="topright"/>
  <outline>
    <contour>
      <point x="73" y="-10"/>
      <point x="240" y="-10" type="curve" smooth="yes"/>
      <point x="447" y="-10"/>
      <point x="573" y="144"/>
      <point x="573" y="313" type="curve" smooth="yes"/>
      <point x="573" y="436"/>
      <point x="507" y="536"/>
      <point x="340" y="536" type="curve" smooth="yes"/>
      <point x="133" y="536"/>
      <point x="7" y="383"/>
      <point x="7" y="214" type="curve" smooth="yes"/>
      <point x="7" y="91"/>
    </contour>
    <contour>
      <point x="324" y="150"/>
      <point x="267" y="150" type="curve" smooth="yes"/>
      <point x="227" y="150"/>
      <point x="205" y="181"/>
      <point x="205" y="234" type="curve" smooth="yes"/>
      <point x="205" y="315"/>
      <point x="256" y="376"/>
      <point x="313" y="376" type="curve" smooth="yes"/>
      <point x="353" y="376"/>
      <point x="375" y="345"/>
      <point x="375" y="292" type="curve" smooth="yes"/>
      <point x="375" y="211"/>
    </contour>
  </outline>
</glyph>
<glyph name="p" format="2">
  <advance width="626"/>
  <unicode hex="0070"/>
  <outline>
    <contour>
      <point x="95" y="526" type="line"/>
      <point x="-62" y="-213" type="line"/>
      <point x="128" y="-213" type="line"/>
      <point x="190" y="78" type="line"/>
      <point x="205" y="21"/>
      <point x="253" y="-10"/>
      <point x="324" y="-10" type="curve" smooth="yes"/>
      <point x="469" y="-10"/>
      <point x="603" y="144"/>
      <point x="603" y="324" type="curve" smooth="yes"/>
      <point x="603" y="447"/>
      <point x="533" y="536"/>
      <point x="422" y="536" type="curve" smooth="yes"/>
      <point x="347" y="536"/>
      <point x="290" y="504"/>
      <point x="243" y="447" type="curve"/>
      <point x="260" y="526" type="line"/>
    </contour>
    <contour>
      <point x="348" y="150"/>
      <point x="292" y="150" type="curve" smooth="yes"/>
      <point x="257" y="150"/>
      <point x="229" y="185"/>
      <point x="222" y="231" type="curve"/>
      <point x="242" y="322" type="line"/>
      <point x="274" y="358"/>
      <point x="301" y="376"/>
      <point x="332" y="376" type="curve" smooth="yes"/>
      <point x="378" y="376"/>
      <point x="404" y="343"/>
      <point x="404" y="293" type="curve" smooth="yes"/>
      <point x="404" y="218"/>
    </contour>
  </outline>
</glyph>
<glyph name="u" format="2">
  <advance width="618"/>
  <unicode hex="0075"/>
  <anchor x="253" y="0" name="bottom"/>
  <anchor x="523" y="0" name="ogonek"/>
  <anchor x="365" y="526" name="top"/>
  <anchor x="629" y="447" name="topright"/>
  <outline>
    <contour>
      <point x="52" y="-10"/>
      <point x="132" y="-10" type="curve" smooth="yes"/>
      <point x="215" y="-10"/>
      <point x="285" y="17"/>
      <point x="345" y="82" type="curve"/>
      <point x="344" y="75"/>
      <point x="343" y="69"/>
      <point x="343" y="63" type="curve" smooth="yes"/>
      <point x="343" y="10"/>
      <point x="384" y="-10"/>
      <point x="441" y="-10" type="curve" smooth="yes"/>
      <point x="461" y="-10"/>
      <point x="488" y="-7"/>
      <point x="523" y="0" type="curve"/>
      <point x="557" y="160" type="line"/>
      <point x="538" y="161"/>
      <point x="530" y="168"/>
      <point x="530" y="186" type="curve" smooth="yes"/>
      <point x="530" y="192"/>
      <point x="531" y="200"/>
      <point x="533" y="210" type="curve" smooth="yes"/>
      <point x="600" y="526" type="line"/>
      <point x="410" y="526" type="line"/>
      <point x="341" y="204" type="line"/>
      <point x="302" y="159"/>
      <point x="274" y="150"/>
      <point x="251" y="150" type="curve" smooth="yes"/>
      <point x="227" y="150"/>
      <point x="213" y="166"/>
      <point x="213" y="196" type="curve" smooth="yes"/>
      <point x="213" y="204"/>
      <point x="214" y="213"/>
      <point x="216" y="223" type="curve" smooth="yes"/>
      <point x="280" y="526" type="line"/>
      <point x="91" y="526" type="line"/>
      <point x="17" y="180" type="line" smooth="yes"/>
      <point x="12" y="156"/>
      <point x="9" y="134"/>
      <point x="9" y="114" type="curve" smooth="yes"/>
      <point x="9" y="33"/>
    </contour>
  </outline>
</glyph>
<glyph name="bar" format="2">
  <advance width="358"/>
  <unicode hex="007C"/>
  <outline>
    <contour>
      <point x="104" y="-130" type="line"/>
      <point x="264" y="-130" type="line"/>
      <point x="264" y="775" type="line"/>
      <point x="104" y="775" type="line"/>
    </contour>
  </outline>
</glyph>
<glyph name="exclamdown" format="2">
  <advance width="331"/>
  <unicode hex="00A1"/>
  <outline>
    <contour>
      <point x="284" y="410" type="line"/>
      <point x="94" y="410" type="line"/>
      <point x="5" y="-7" type="line"/>
      <point x="195" y="-7" type="line"/>
    </contour>
    <contour>
      <point x="347" y="710" type="line"/>
      <point x="157" y="710" type="line"/>
      <point x="118" y="526" type="line"/>
      <point x="308" y="526" type="line"/>
    </contour>
  </outline>
</glyph>
<glyph name="brokenbar" format="2">
  <advance width="350"/>
  <unicode hex="00A6"/>
  <outline>
    <contour>
      <point x="260" y="254" type="line"/>
      <point x="100" y="254" type="line"/>
      <point x="100" y="-130" type="line"/>
      <point x="260" y="-130" type="line"/>
    </contour>
    <contour>
      <point x="260" y="775" type="line"/>
      <point x="100" y="775" type="line"/>
      <point x="100" y="391" type="line"/>
      <point x="260" y="391" type="line"/>
    </contour>
  </outline>
</glyph>
<glyph name="degree" format="2">
  <advance width="294"/>
  <unicode hex="00B0"/>
  <outline>
    <contour>
      <point x="126" y="486"/>
      <point x="184" y="486" type="curve" smooth="yes"/>
      <point x="265" y="486"/>
      <point x="329" y="548"/>
      <point x="329" y="631" type="curve" smooth="yes"/>
      <point x="329" y="685"/>
      <point x="293" y="724"/>
      <point x="235" y="724" type="curve" smooth="yes"/>
      <point x="152" y="724"/>
      <point x="91" y="652"/>
      <point x="91" y="577" type="curve" smooth="yes"/>
      <point x="91" y="522"/>
    </contour>
    <contour>
      <point x="220" y="573"/>
      <point x="203" y="573" type="curve" smooth="yes"/>
      <point x="187" y="573"/>
      <point x="179" y="586"/>
      <point x="179" y="600" type="curve" smooth="yes"/>
      <point x="179" y="619"/>
      <point x="198" y="636"/>
      <point x="216" y="636" type="curve" smooth="yes"/>
      <point x="227" y="636"/>
      <point x="239" y="630"/>
      <point x="239" y="612" type="curve" smooth="yes"/>
      <point x="239" y="592"/>
    </contour>
  </outline>
</glyph>
<glyph name="Eth" format="2">
  <advance width="696"/>
  <unicode hex="00D0"/>
  <outline>
    <contour>
      <point x="57" y="427" type="line"/>
      <point x="28" y="287" type="line"/>
      <point x="360" y="287" type="line"/>
      <point x="390" y="427" type="line"/>
    </contour>
    <contour>
      <point x="151" y="710" type="line"/>
      <point x="0" y="0" type="line"/>
      <point x="262" y="0" type="line"/>
      <point x="505" y="0"/>
      <point x="689" y="183"/>
      <point x="689" y="433" type="curve" smooth="yes"/>
      <point x="689" y="588"/>
      <point x="601" y="710"/>
      <point x="413" y="710" type="curve" smooth="yes"/>
    </contour>
    <contour>
      <point x="298" y="170" type="curve" smooth="yes"/>
      <point x="231" y="170" type="line"/>
      <point x="310" y="540" type="line"/>
      <point x="377" y="540" type="line" smooth="yes"/>
      <point x="449" y="540"/>
      <point x="488" y="486"/>
      <point x="488" y="405" type="curve" smooth="yes"/>
      <point x="488" y="280"/>
      <point x="410" y="170"/>
    </contour>
  </outline>
</glyph>
<glyph name="multiply" format="2">
  <advance width="506"/>
  <unicode hex="00D7"/>
  <outline>
    <contour>
      <point x="450" y="191" type="line"/>
      <point x="362" y="278" type="line"/>
      <point x="442" y="358" type="line"/>
      <point x="325" y="476" type="line"/>
      <point x="245" y="396" type="line"/>
      <point x="165" y="476" type="line"/>
      <point x="46" y="358" type="line"/>
      <point x="126" y="277" type="line"/>
      <point x="40" y="191" type="line"/>
      <point x="157" y="73" type="line"/>
      <point x="244" y="160" type="line"/>
      <point x="331" y="73" type="line"/>
    </contour>
  </outline>
</glyph>
<glyph name="hbar" format="2">
  <advance width="601"/>
  <unicode hex="0127"/>
  <outline>
    <contour>
      <point x="84" y="688" type="line"/>
      <point x="61" y="579" type="line"/>
      <point x="386" y="579" type="line"/>
      <point x="409" y="688" type="line"/>
    </contour>
    <component base="h"/>
  </outline>
</glyph>
<glyph name="Lslash" format="2">
  <advance width="573"/>
  <unicode hex="0141"/>
  <outline>
    <contour>
      <point x="-4" y="353" type="line"/>
      <point x="17" y="252" type="line"/>
      <point x="396" y="426" type="line"/>
      <point x="375" y="527" type="line"/>
    </contour>
    <component base="L"/>
  </outline>
</glyph>
<glyph name="eng" format="2">
  <advance width="600"/>
  <unicode hex="014B"/>
  <outline>
    <contour>
      <point x="195" y="-209"/>
      <point x="248" y="-209" type="curve" smooth="yes"/>
      <point x="365" y="-209"/>
      <point x="467" y="-119"/>
      <point x="495" y="12" type="curve" smooth="yes"/>
      <point x="566" y="346" type="line" smooth="yes"/>
      <point x="571" y="368"/>
      <point x="575" y="394"/>
      <point x="575" y="419" type="curve" smooth="yes"/>
      <point x="575" y="478"/>
      <point x="552" y="536"/>
      <point x="455" y="536" type="curve" smooth="yes"/>
      <point x="369" y="536"/>
      <point x="297" y="505"/>
      <point x="250" y="448" type="curve"/>
      <point x="267" y="526" type="line"/>
      <point x="96" y="526" type="line"/>
      <point x="-16" y="0" type="line"/>
      <point x="174" y="0" type="line"/>
      <point x="237" y="295" type="line"/>
      <point x="262" y="339"/>
      <point x="305" y="370"/>
      <point x="331" y="370" type="curve" smooth="yes"/>
      <point x="352" y="370"/>
      <point x="370" y="355"/>
      <point x="370" y="322" type="curve" smooth="yes"/>
      <point x="370" y="314"/>
      <point x="369" y="306"/>
      <point x="367" y="296" type="curve" smooth="yes"/>
      <point x="303" y="-3" type="line" smooth="yes"/>
      <point x="297" y="-30"/>
      <point x="281" y="-46"/>
      <point x="259" y="-46" type="curve" smooth="yes"/>
      <point x="242" y="-46"/>
      <point x="228" y="-38"/>
      <point x="221" y="-26" type="curve"/>
      <point x="116" y="-155" type="line"/>
      <point x="148" y="-190"/>
    </contour>
  </outline>
</glyph>
<glyph name="oe" format="2">
  <advance width="947"/>
  <unicode hex="0153"/>
  <outline>
    <contour>
      <point x="92" y="-10"/>
      <point x="230" y="-10" type="curve" smooth="yes"/>
      <point x="294" y="-10"/>
      <point x="342" y="10"/>
      <point x="427" y="70" type="curve"/>
      <point x="487" y="11"/>
      <point x="527" y="-10"/>
      <point x="592" y="-10" type="curve" smooth="yes"/>
      <point x="703" y="-10"/>
      <point x="808" y="44"/>
      <point x="872" y="133" type="curve"/>
      <point x="725" y="179" type="line"/>
      <point x="707" y="146"/>
      <point x="665" y="122"/>
      <point x="626" y="122" type="curve" smooth="yes"/>
      <point x="586" y="122"/>
      <point x="560" y="149"/>
      <point x="560" y="189" type="curve" smooth="yes"/>
      <point x="560" y="194"/>
      <point x="561" y="199"/>
      <point x="562" y="205" type="curve"/>
      <point x="906" y="205" type="line"/>
      <point x="917" y="231"/>
      <point x="931" y="266"/>
      <point x="931" y="317" type="curve" smooth="yes"/>
      <point x="931" y="445"/>
      <point x="846" y="536"/>
      <point x="710" y="536" type="curve" smooth="yes"/>
      <point x="639" y="536"/>
      <point x="582" y="511"/>
      <point x="508" y="450" type="curve"/>
      <point x="468" y="509"/>
      <point x="418" y="536"/>
      <point x="344" y="536" type="curve" smooth="yes"/>
      <point x="160" y="536"/>
      <point x="7" y="394"/>
      <point x="7" y="209" type="curve" smooth="yes"/>
      <point x="7" y="80"/>
    </contour>
    <contour>
      <point x="328" y="150"/>
      <point x="266" y="150" type="curve" smooth="yes"/>
      <point x="227" y="150"/>
      <point x="205" y="182"/>
      <point x="205" y="231" type="curve" smooth="yes"/>
      <point x="205" y="312"/>
      <point x="252" y="376"/>
      <point x="314" y="376" type="curve" smooth="yes"/>
      <point x="353" y="376"/>
      <point x="375" y="344"/>
      <point x="375" y="295" type="curve" smooth="yes"/>
      <point x="375" y="214"/>
    </contour>
    <contour>
      <point x="735" y="319" type="curve"/>
      <point x="580" y="319" type="line"/>
      <point x="595" y="369"/>
      <point x="632" y="401"/>
      <point x="675" y="401" type="curve" smooth="yes"/>
      <point x="714" y="401"/>
      <point x="736" y="375"/>
      <point x="736" y="332" type="curve" smooth="yes"/>
      <point x="736" y="328"/>
      <point x="735" y="324"/>
    </contour>
  </outline>
</glyph>
<glyph name="tildecomb" format="2">
  <unicode hex="0303"/>
  <anchor x="312" y="526" name="_top"/>
  <anchor x="355" y="730" name="top"/>
  <outline>
    <contour>
      <point x="330" y="572"/>
      <point x="388" y="572" type="curve" smooth="yes"/>
      <point x="487" y="572"/>
      <point x="556" y="707"/>
      <point x="561" y="730" type="curve"/>
      <point x="461" y="730" type="line"/>
      <point x="460" y="727"/>
      <point x="444" y="679"/>
      <point x="403" y="679" type="curve" smooth="yes"/>
      <point x="360" y="679"/>
      <point x="348" y="730"/>
      <point x="285" y="730" type="curve" smooth="yes"/>
      <point x="188" y="730"/>
      <point x="123" y="607"/>
      <point x="116" y="572" type="curve"/>
      <point x="217" y="572" type="line"/>
      <point x="217" y="574"/>
      <point x="227" y="620"/>
      <point x="270" y="620" type="curve" smooth="yes"/>
      <point x="313" y="620"/>
    </contour>
  </outline>
</glyph>
<glyph name="strokeshortcomb" format="2">
  <unicode hex="0335"/>
  <anchor x="212" y="282" name="_center"/>
  <outline>
    <contour>
      <point x="42" y="227" type="line"/>
      <point x="356" y="227" type="line"/>
      <point x="381" y="336" type="line"/>
      <point x="67" y="336" type="line"/>
    </contour>
  </outline>
</glyph>
<glyph name="E-cy" format="2">
  <advance width="708"/>
  <unicode hex="0404"/>
  <outline>
    <contour>
      <point x="148" y="285" type="line"/>
      <point x="421" y="285" type="line"/>
      <point x="453" y="440" type="line"/>
      <point x="185" y="440" type="line"/>
    </contour>
    <component base="Es-cy"/>
  </outline>
</glyph>
<glyph name="Nje-cy" format="2">
  <advance width="1048"/>
  <unicode hex="040A"/>
  <outline>
    <contour>
      <point x="-3" y="0" type="line"/>
      <point x="192" y="0" type="line"/>
      <point x="251" y="278" type="line"/>
      <point x="463" y="278" type="line"/>
      <point x="404" y="0" type="line"/>
      <point x="721" y="0" type="line" smooth="yes"/>
      <point x="875" y="0"/>
      <point x="983" y="92"/>
      <point x="1003" y="240" type="curve" smooth="yes"/>
      <point x="1023" y="386"/>
      <point x="937" y="475"/>
      <point x="778" y="475" type="curve" smooth="yes"/>
      <point x="700" y="475" type="line"/>
      <point x="750" y="710" type="line"/>
      <point x="555" y="710" type="line"/>
      <point x="499" y="448" type="line"/>
      <point x="287" y="448" type="line"/>
      <point x="343" y="710" type="line"/>
      <point x="148" y="710" type="line"/>
    </contour>
    <contour>
      <point x="632" y="158" type="line"/>
      <point x="666" y="317" type="line"/>
      <point x="738" y="317" type="line" smooth="yes"/>
      <point x="788" y="317"/>
      <point x="809" y="280"/>
      <point x="804" y="240" type="curve" smooth="yes"/>
      <point x="798" y="189"/>
      <point x="766" y="158"/>
      <point x="715" y="158" type="curve" smooth="yes"/>
    </contour>
  </outline>
</glyph>
<glyph name="Dzhe-cy" format="2">
  <advance width="722"/>
  <unicode hex="040F"/>
  <outline>
    <contour>
      <point x="186" y="-136" type="line"/>
      <point x="351" y="-136" type="line"/>
      <point x="380" y="0" type="line"/>
      <point x="597" y="0" type="line"/>
      <point x="747" y="710" type="line"/>
      <point x="552" y="710" type="line"/>
      <point x="438" y="170" type="line"/>
      <point x="229" y="170" type="line"/>
      <point x="343" y="710" type="line"/>
      <point x="148" y="710" type="line"/>
      <point x="-2" y="0" type="line"/>
      <point x="215" y="0" type="line"/>
    </contour>
  </outline>
</glyph>
<glyph name="Ge-cy" format="2">
  <advance width="543"/>
  <unicode hex="0413"/>
  <anchor x="56" y="0" name="bottomright"/>
  <anchor x="393" y="710" name="top"/>
  <outline>
    <contour>
      <point x="-10" y="0" type="line"/>
      <point x="185" y="0" type="line"/>
      <point x="299" y="540" type="line"/>
      <point x="567" y="540" type="line"/>
      <point x="603" y="710" type="line"/>
      <point x="140" y="710" type="line"/>
    </contour>
  </outline>
</glyph>
<glyph name="Ze-cy" format="2">
  <advance width="675"/>
  <unicode hex="0417"/>
  <anchor x="260" y="0" name="bottom"/>
  <anchor x="405" y="710" name="top"/>
  <outline>
    <contour>
      <point x="289" y="-6" type="curve" smooth="yes"/>
      <point x="453" y="-6"/>
      <point x="587" y="64"/>
      <point x="606" y="200" type="curve" smooth="yes"/>
      <point x="617" y="278"/>
      <point x="583" y="340"/>
      <point x="509" y="364" type="curve"/>
      <point x="584" y="396"/>
      <point x="617" y="457"/>
      <point x="626" y="516" type="curve" smooth="yes"/>
      <point x="644" y="648"/>
      <point x="555" y="714"/>
      <point x="386" y="714" type="curve" smooth="yes"/>
      <point x="244" y="714"/>
      <point x="154" y="657"/>
      <point x="81" y="575" type="curve"/>
      <point x="207" y="475" type="line"/>
      <point x="235" y="513"/>
      <point x="284" y="541"/>
      <point x="353" y="541" type="curve" smooth="yes"/>
      <point x="419" y="541"/>
      <point x="437" y="519"/>
      <point x="432" y="485" type="curve" smooth="yes"/>
      <point x="427" y="450"/>
      <point x="404" y="430"/>
      <point x="346" y="430" type="curve" smooth="yes"/>
      <point x="292" y="430" type="line"/>
      <point x="261" y="284" type="line"/>
      <point x="325" y="284" type="line" smooth="yes"/>
      <point x="395" y="284"/>
      <point x="417" y="259"/>
      <point x="411" y="220" type="curve" smooth="yes"/>
      <point x="406" y="182"/>
      <point x="377" y="155"/>
      <point x="307" y="155" type="curve" smooth="yes"/>
      <point x="239" y="155"/>
      <point x="191" y="184"/>
      <point x="167" y="231" type="curve"/>
      <point x="8" y="140" type="line"/>
      <point x="56" y="48"/>
      <point x="157" y="-6"/>
    </contour>
  </outline>
</glyph>
<glyph name="Ka-cy" format="2">
  <advance width="710"/>
  <unicode hex="041A"/>
  <guideline x="518" y="380" angle="0"/>
  <anchor x="448" y="0" name="bottomright"/>
  <anchor x="438" y="710" name="top"/>
  <outline>
    <contour>
      <point x="-2" y="0" type="line"/>
      <point x="192" y="0" type="line"/>
      <point x="249" y="272" type="line"/>
      <point x="296" y="272" type="line"/>
      <point x="404" y="0" type="line"/>
      <point x="629" y="0" type="line"/>
      <point x="453" y="380" type="line"/>
      <point x="785" y="710" type="line"/>
      <point x="549" y="710" type="line"/>
      <point x="313" y="449" type="line"/>
      <point x="287" y="449" type="line"/>
      <point x="342" y="710" type="line"/>
      <point x="148" y="710" type="line"/>
    </contour>
  </outline>
</glyph>
<glyph name="El-cy" format="2">
  <advance width="740"/>
  <unicode hex="041B"/>
  <outline>
    <contour>
      <point x="-22" y="-7" type="line"/>
      <point x="209" y="-6"/>
      <point x="280" y="78"/>
      <point x="368" y="428" type="curve" smooth="yes"/>
      <point x="396" y="540" type="line"/>
      <point x="534" y="540" type="line"/>
      <point x="420" y="0" type="line"/>
      <point x="615" y="0" type="line"/>
      <point x="765" y="710" type="line"/>
      <point x="251" y="710" type="line"/>
      <point x="195" y="486" type="line" smooth="yes"/>
      <point x="129" y="222"/>
      <point x="97" y="161"/>
      <point x="13" y="161" type="curve"/>
    </contour>
  </outline>
</glyph>
<glyph name="Pe-cy" format="2">
  <advance width="732"/>
  <unicode hex="041F"/>
  <anchor x="463" y="0" name="bottomright"/>
  <outline>
    <contour>
      <point x="-2" y="0" type="line"/>
      <point x="193" y="0" type="line"/>
      <point x="307" y="540" type="line"/>
      <point x="526" y="540" type="line"/>
      <point x="412" y="0" type="line"/>
      <point x="607" y="0" type="line"/>
      <point x="757" y="710" type="line"/>
      <point x="148" y="710" type="line"/>
    </contour>
  </outline>
</glyph>
<glyph name="U-cy" format="2">
  <advance width="682"/>
  <unicode hex="0423"/>
  <anchor x="436" y="710" name="top"/>
  <outline>
    <contour>
      <point x="102" y="-7" type="line"/>
      <point x="199" y="-7" type="line" smooth="yes"/>
      <point x="292" y="-7"/>
      <point x="348" y="19"/>
      <point x="401" y="103" type="curve" smooth="yes"/>
      <point x="757" y="710" type="line"/>
      <point x="556" y="710" type="line"/>
      <point x="378" y="372" type="line"/>
      <point x="290" y="710" type="line"/>
      <point x="75" y="710" type="line"/>
      <point x="273" y="184" type="line"/>
      <point x="267" y="177" type="line"/>
      <point x="254" y="163"/>
      <point x="242" y="153"/>
      <point x="221" y="153" type="curve" smooth="yes"/>
      <point x="136" y="153" type="line"/>
    </contour>
  </outline>
</glyph>
<glyph name="Tse-cy" format="2">
  <advance width="787"/>
  <unicode hex="0426"/>
  <outline>
    <contour>
      <point x="487" y="-136" type="line"/>
      <point x="657" y="-136" type="line"/>
      <point x="722" y="170" type="line"/>
      <point x="622" y="170" type="line"/>
      <point x="737" y="710" type="line"/>
      <point x="542" y="710" type="line"/>
      <point x="427" y="170" type="line"/>
      <point x="228" y="170" type="line"/>
      <point x="343" y="710" type="line"/>
      <point x="148" y="710" type="line"/>
      <point x="-3" y="0" type="line"/>
      <point x="516" y="0" type="line"/>
    </contour>
  </outline>
</glyph>
<glyph name="Shcha-cy" format="2">
  <advance width="1101"/>
  <unicode hex="0429"/>
  <outline>
    <contour>
      <point x="801" y="-136" type="line"/>
      <point x="971" y="-136" type="line"/>
      <point x="1036" y="170" type="line"/>
      <point x="936" y="170" type="line"/>
      <point x="1051" y="710" type="line"/>
      <point x="856" y="710" type="line"/>
      <point x="741" y="170" type="line"/>
      <point x="582" y="170" type="line"/>
      <point x="697" y="710" type="line"/>
      <point x="502" y="710" type="line"/>
      <point x="387" y="170" type="line"/>
      <point x="228" y="170" type="line"/>
      <point x="343" y="710" type="line"/>
      <point x="148" y="710" type="line"/>
      <point x="-3" y="0" type="line"/>
      <point x="830" y="0" type="line"/>
    </contour>
  </outline>
</glyph>
<glyph name="Softsign-cy" format="2">
  <advance width="671"/>
  <unicode hex="042C"/>
  <outline>
    <contour>
      <point x="-2" y="0" type="line"/>
      <point x="344" y="0" type="line" smooth="yes"/>
      <point x="498" y="0"/>
      <point x="605" y="92"/>
      <point x="626" y="240" type="curve" smooth="yes"/>
      <point x="646" y="386"/>
      <point x="560" y="475"/>
      <point x="401" y="475" type="curve" smooth="yes"/>
      <point x="293" y="475" type="line"/>
      <point x="343" y="710" type="line"/>
      <point x="148" y="710" type="line"/>
    </contour>
    <contour>
      <point x="227" y="158" type="line"/>
      <point x="260" y="317" type="line"/>
      <point x="361" y="317" type="line" smooth="yes"/>
      <point x="411" y="317"/>
      <point x="432" y="280"/>
      <point x="427" y="240" type="curve" smooth="yes"/>
      <point x="420" y="189"/>
      <point x="389" y="158"/>
      <point x="338" y="158" type="curve" smooth="yes"/>
    </contour>
  </outline>
</glyph>
<glyph name="ge-cy" format="2">
  <advance width="582"/>
  <unicode hex="0433"/>
  <anchor x="249" y="0" name="bottomright"/>
  <anchor x="346" y="526" name="top"/>
  <outline>
    <contour>
      <point x="258" y="-9" type="curve" smooth="yes"/>
      <point x="389" y="-9"/>
      <point x="465" y="33"/>
      <point x="521" y="90" type="curve"/>
      <point x="407" y="183" type="line"/>
      <point x="378" y="148"/>
      <point x="336" y="128"/>
      <point x="300" y="128" type="curve" smooth="yes"/>
      <point x="264" y="128"/>
      <point x="241" y="137"/>
      <point x="241" y="154" type="curve" smooth="yes"/>
      <point x="241" y="180"/>
      <point x="255" y="205"/>
      <point x="352" y="233" type="curve" smooth="yes"/>
      <point x="475" y="268"/>
      <point x="528" y="309"/>
      <point x="528" y="391" type="curve" smooth="yes"/>
      <point x="528" y="475"/>
      <point x="466" y="537"/>
      <point x="330" y="537" type="curve" smooth="yes"/>
      <point x="205" y="537"/>
      <point x="114" y="495"/>
      <point x="58" y="424" type="curve"/>
      <point x="186" y="349" type="line"/>
      <point x="212" y="385"/>
      <point x="260" y="406"/>
      <point x="295" y="406" type="curve" smooth="yes"/>
      <point x="322" y="406"/>
      <point x="343" y="397"/>
      <point x="343" y="379" type="curve" smooth="yes"/>
      <point x="343" y="352"/>
      <point x="329" y="337"/>
      <point x="277" y="318" type="curve" smooth="yes"/>
      <point x="114" y="278"/>
      <point x="44" y="232"/>
      <point x="44" y="144" type="curve" smooth="yes"/>
      <point x="44" y="56"/>
      <point x="102" y="-9"/>
    </contour>
  </outline>
</glyph>
<glyph name="ie-cy" format="2">
  <advance width="596"/>
  <unicode hex="0435"/>
  <anchor x="368" y="526" name="top"/>
  <outline>
    <contour>
      <point x="273" y="-10" type="curve" smooth="yes"/>
      <point x="403" y="-10"/>
      <point x="493" y="47"/>
      <point x="546" y="132" type="curve"/>
      <point x="394" y="180" type="line"/>
      <point x="374" y="145"/>
      <point x="342" y="126"/>
      <point x="300" y="126" type="curve" smooth="yes"/>
      <point x="254" y="126"/>
      <point x="234" y="148"/>
      <point x="230" y="203" type="curve" smooth="yes"/>
      <point x="223" y="312"/>
      <point x="268" y="401"/>
      <point x="331" y="401" type="curve" smooth="yes"/>
      <point x="361" y="401"/>
      <point x="383" y="385"/>
      <point x="385" y="362" type="curve" smooth="yes"/>
      <point x="387" y="329"/>
      <point x="352" y="318"/>
      <point x="250" y="318" type="curve" smooth="yes"/>
      <point x="209" y="318"/>
      <point x="172" y="320"/>
      <point x="137" y="324" type="curve"/>
      <point x="121" y="211" type="line"/>
      <point x="168" y="206"/>
      <point x="216" y="204"/>
      <point x="259" y="204" type="curve" smooth="yes"/>
      <point x="471" y="204"/>
      <point x="578" y="265"/>
      <point x="570" y="383" type="curve" smooth="yes"/>
      <point x="563" y="479"/>
      <point x="483" y="536"/>
      <point x="356" y="536" type="curve" smooth="yes"/>
      <point x="163" y="536"/>
      <point x="19" y="393"/>
      <point x="31" y="213" type="curve" smooth="yes"/>
      <point x="41" y="78"/>
      <point x="136" y="-10"/>
    </contour>
  </outline>
</glyph>
<glyph name="el-cy" format="2">
  <advance width="612"/>
  <unicode hex="043B"/>
  <outline>
    <contour>
      <point x="-21" y="0" type="curve"/>
      <point x="164" y="0" type="line"/>
      <point x="218" y="144"/>
      <point x="253" y="223"/>
      <point x="339" y="367" type="curve"/>
      <point x="349" y="0" type="line"/>
      <point x="546" y="0" type="line"/>
      <point x="483" y="526" type="line"/>
      <point x="287" y="526" type="line"/>
      <point x="142" y="352"/>
      <point x="31" y="174"/>
    </contour>
  </outline>
</glyph>
<glyph name="em-cy" format="2">
  <advance width="754"/>
  <unicode hex="043C"/>
  <outline>
    <contour>
      <point x="-6" y="0" type="line"/>
      <point x="174" y="0" type="line"/>
      <point x="232" y="271" type="line"/>
      <point x="282" y="92" type="line"/>
      <point x="400" y="92" type="line"/>
      <point x="526" y="271" type="line"/>
      <point x="468" y="0" type="line"/>
      <point x="648" y="0" type="line"/>
      <point x="760" y="526" type="line"/>
      <point x="557" y="526" type="line"/>
      <point x="374" y="271" type="line"/>
      <point x="300" y="526" type="line"/>
      <point x="106" y="526" type="line"/>
    </contour>
  </outline>
</glyph>
<glyph name="pe-cy" format="2">
  <advance width="605"/>
  <unicode hex="043F"/>
  <anchor x="309" y="0" name="bottomright"/>
  <outline>
    <contour>
      <point x="-6" y="0" type="line"/>
      <point x="184" y="0" type="line"/>
      <point x="265.337" y="381" type="line"/>
      <point x="390.337" y="381" type="line"/>
      <point x="309" y="0" type="line"/>
      <point x="499" y="0" type="line"/>
      <point x="611" y="526" type="line"/>
      <point x="106" y="526" type="line"/>
    </contour>
  </outline>
</glyph>
<glyph name="ef-cy" format="2">
  <advance width="787"/>
  <unicode hex="0444"/>
  <outline>
    <contour>
      <point x="191" y="-213" type="line"/>
      <point x="381" y="-213" type="line"/>
      <point x="426" y="0" type="line"/>
      <point x="453" y="0" type="line" smooth="yes"/>
      <point x="627" y="0"/>
      <point x="738" y="124"/>
      <point x="758" y="263" type="curve" smooth="yes"/>
      <point x="777" y="396"/>
      <point x="708" y="514"/>
      <point x="552" y="525" type="curve" smooth="yes"/>
      <point x="538" y="526" type="line"/>
      <point x="581" y="730" type="line"/>
      <point x="391" y="730" type="line"/>
      <point x="348" y="526" type="line"/>
      <point x="317" y="526" type="line" smooth="yes"/>
      <point x="138" y="526"/>
      <point x="32" y="403"/>
      <point x="12" y="263" type="curve" smooth="yes"/>
      <point x="-7" y="132"/>
      <point x="61" y="13"/>
      <point x="215" y="1" type="curve" smooth="yes"/>
      <point x="236" y="0" type="line"/>
    </contour>
    <contour>
      <point x="262" y="145" type="line" smooth="yes"/>
      <point x="215" y="145"/>
      <point x="187" y="190"/>
      <point x="197" y="263" type="curve" smooth="yes"/>
      <point x="207" y="337"/>
      <point x="249" y="382"/>
      <point x="298" y="382" type="curve" smooth="yes"/>
      <point x="327" y="382" type="line"/>
      <point x="277" y="145" type="line"/>
    </contour>
    <contour>
      <point x="447" y="145" type="line"/>
      <point x="497" y="382" type="line"/>
      <point x="508" y="382" type="line" smooth="yes"/>
      <point x="555" y="382"/>
      <point x="583" y="337"/>
      <point x="573" y="263" type="curve" smooth="yes"/>
      <point x="563" y="190"/>
      <point x="521" y="145"/>
      <point x="472" y="145" type="curve" smooth="yes"/>
    </contour>
  </outline>
</glyph>
<glyph name="che-cy" format="2">
  <advance width="581"/>
  <unicode hex="0447"/>
  <anchor x="300" y="0" name="bottomright"/>
  <anchor x="277" y="212" name="center"/>
  <anchor x="363" y="526" name="top"/>
  <outline>
    <contour>
      <point x="280" y="0" type="line"/>
      <point x="475" y="0" type="line"/>
      <point x="587" y="526" type="line"/>
      <point x="397" y="526" type="line"/>
      <point x="348" y="295" type="line"/>
      <point x="327" y="287"/>
      <point x="306" y="282"/>
      <point x="288" y="282" type="curve" smooth="yes"/>
      <point x="256" y="282"/>
      <point x="233" y="298"/>
      <point x="241" y="339" type="curve" smooth="yes"/>
      <point x="281" y="526" type="line"/>
      <point x="91" y="526" type="line"/>
      <point x="46" y="314" type="line" smooth="yes"/>
      <point x="22" y="203"/>
      <point x="89" y="142"/>
      <point x="195" y="142" type="curve" smooth="yes"/>
      <point x="246" y="142"/>
      <point x="278" y="147"/>
      <point x="319" y="163" type="curve"/>
    </contour>
  </outline>
</glyph>
<glyph name="yeru-cy" format="2">
  <advance width="847"/>
  <unicode hex="044B"/>
  <anchor x="488" y="526" name="top"/>
  <outline>
    <contour>
      <point x="258" y="-10" type="curve" smooth="yes"/>
      <point x="384" y="-10"/>
      <point x="505" y="33"/>
      <point x="526" y="194" type="curve" smooth="yes"/>
      <point x="547" y="347"/>
      <point x="440" y="389"/>
      <point x="315" y="389" type="curve" smooth="yes"/>
      <point x="183" y="389" type="line"/>
      <point x="162" y="256" type="line"/>
      <point x="290" y="256" type="line" smooth="yes"/>
      <point x="339" y="256"/>
      <point x="364" y="233"/>
      <point x="358" y="198" type="curve" smooth="yes"/>
      <point x="354" y="163"/>
      <point x="327" y="144"/>
      <point x="285" y="144" type="curve" smooth="yes"/>
      <point x="241" y="144"/>
      <point x="206" y="164"/>
      <point x="213" y="198" type="curve" smooth="yes"/>
      <point x="231" y="306"/>
      <point x="264" y="418"/>
      <point x="294" y="526" type="curve"/>
      <point x="104" y="526" type="line"/>
      <point x="75" y="422"/>
      <point x="43" y="313"/>
      <point x="25" y="209" type="curve" smooth="yes"/>
      <point x="-3" y="54"/>
      <point x="100" y="-10"/>
    </contour>
    <component base="idotless" xOffset="567"/>
  </outline>
</glyph>
<glyph name="iu-cy" format="2">
  <advance width="908"/>
  <unicode hex="044E"/>
  <outline>
    <contour>
      <point x="-6" y="0" type="line"/>
      <point x="184" y="0" type="line"/>
      <point x="222" y="180" type="line"/>
      <point x="346" y="180" type="line"/>
      <point x="384" y="345" type="line"/>
      <point x="257" y="345" type="line"/>
      <point x="296" y="526" type="line"/>
      <point x="106" y="526" type="line"/>
    </contour>
    <component base="o-cy" xOffset="272"/>
  </outline>
</glyph>
<glyph name="ia-cy" format="2">
  <advance width="609"/>
  <unicode hex="044F"/>
  <outline>
    <contour>
      <point x="-11" y="0" type="line"/>
      <point x="196" y="0" type="line"/>
      <point x="307" y="163" type="line"/>
      <point x="342" y="163" type="line"/>
      <point x="307" y="0" type="line"/>
      <point x="488" y="0" type="line"/>
      <point x="591" y="488" type="line"/>
      <point x="528" y="518"/>
      <point x="456" y="535"/>
      <point x="343" y="535" type="curve" smooth="yes"/>
      <point x="199" y="535"/>
      <point x="100" y="479"/>
      <point x="81" y="385" type="curve" smooth="yes"/>
      <point x="65" y="305"/>
      <point x="92" y="248"/>
      <point x="152" y="214" type="curve"/>
    </contour>
    <contour>
      <point x="307" y="296" type="line" smooth="yes"/>
      <point x="261" y="296"/>
      <point x="241" y="321"/>
      <point x="248" y="352" type="curve" smooth="yes"/>
      <point x="255" y="380"/>
      <point x="282" y="392"/>
      <point x="328" y="392" type="curve" smooth="yes"/>
      <point x="362" y="392"/>
      <point x="389" y="385"/>
      <point x="389" y="385" type="curve"/>
      <point x="370" y="296" type="line"/>
    </contour>
  </outline>
</glyph>
<glyph name="lje-cy" format="2">
  <advance width="858"/>
  <unicode hex="0459"/>
  <outline>
    <contour>
      <point x="566" y="-10" type="curve" smooth="yes"/>
      <point x="681" y="-10"/>
      <point x="791" y="35"/>
      <point x="810" y="157" type="curve" smooth="yes"/>
      <point x="835" y="321"/>
      <point x="740" y="378"/>
      <point x="576" y="378" type="curve" smooth="yes"/>
      <point x="538" y="378"/>
      <point x="499" y="376"/>
      <point x="461" y="374" type="curve"/>
      <point x="460" y="228" type="line"/>
      <point x="499" y="230"/>
      <point x="539" y="232"/>
      <point x="578" y="232" type="curve" smooth="yes"/>
      <point x="628" y="232"/>
      <point x="649" y="217"/>
      <point x="646" y="188" type="curve" smooth="yes"/>
      <point x="643" y="159"/>
      <point x="629" y="144"/>
      <point x="583" y="144" type="curve" smooth="yes"/>
      <point x="536" y="144"/>
      <point x="512" y="158"/>
      <point x="505" y="212" type="curve" smooth="yes"/>
      <point x="478" y="526" type="line"/>
      <point x="272" y="526" type="line"/>
      <point x="137" y="352"/>
      <point x="27" y="174"/>
      <point x="-21" y="0" type="curve"/>
      <point x="169" y="0" type="line"/>
      <point x="220" y="148"/>
      <point x="253" y="229"/>
      <point x="334" y="377" type="curve"/>
      <point x="334" y="186" type="line" smooth="yes"/>
      <point x="334" y="39"/>
      <point x="416" y="-10"/>
    </contour>
  </outline>
</glyph>
<glyph name="yat-cy" format="2">
  <advance width="848"/>
  <unicode hex="0463"/>
  <outline>
    <contour>
      <point x="537" y="-10" type="curve" smooth="yes"/>
      <point x="663" y="-10"/>
      <point x="784" y="31"/>
      <point x="805" y="184" type="curve" smooth="yes"/>
      <point x="826" y="337"/>
      <point x="719" y="379"/>
      <point x="594" y="374" type="curve" smooth="yes"/>
      <point x="576" y="373"/>
      <point x="558" y="373"/>
      <point x="540" y="372" type="curve"/>
      <point x="558" y="464"/>
      <point x="529.659" y="533"/>
      <point x="412" y="533" type="curve" smooth="yes"/>
      <point x="348" y="533"/>
      <point x="296" y="507"/>
      <point x="259" y="467" type="curve"/>
      <point x="272" y="526" type="line"/>
      <point x="96" y="526" type="line"/>
      <point x="-16" y="0" type="line"/>
      <point x="174" y="0" type="line"/>
      <point x="241" y="316" type="line"/>
      <point x="260" y="355"/>
      <point x="293" y="378"/>
      <point x="321" y="378" type="curve" smooth="yes"/>
      <point x="355" y="378"/>
      <point x="368" y="365"/>
      <point x="358" y="312" type="curve" smooth="yes"/>
      <point x="336" y="209" type="line" smooth="yes"/>
      <point x="306" y="55"/>
      <point x="394" y="-10"/>
    </contour>
    <contour>
      <point x="554" y="144" type="curve" smooth="yes"/>
      <point x="516" y="144"/>
      <point x="496" y="160"/>
      <point x="502" y="188" type="curve" smooth="yes"/>
      <point x="515" y="251" type="line"/>
      <point x="534" y="252"/>
      <point x="554" y="252"/>
      <point x="573" y="253" type="curve" smooth="yes"/>
      <point x="623" y="255"/>
      <point x="645" y="227"/>
      <point x="639" y="198" type="curve" smooth="yes"/>
      <point x="632" y="159"/>
      <point x="601" y="144"/>
    </contour>
  </outline>
</glyph>
<glyph name="Izhitsa-cy" format="2">
  <advance width="659"/>
  <unicode hex="0474"/>
  <outline>
    <contour>
      <point x="173" y="0" type="line"/>
      <point x="335" y="0" type="line"/>
      <point x="597" y="502" type="line" smooth="yes"/>
      <point x="616" y="538"/>
      <point x="638" y="550"/>
      <point x="676" y="550" type="curve"/>
      <point x="700" y="550" type="line"/>
      <point x="754" y="710" type="line"/>
      <point x="683" y="710" type="line" smooth="yes"/>
      <point x="570" y="710"/>
      <point x="510" y="666"/>
      <point x="461" y="565" type="curve" smooth="yes"/>
      <point x="306" y="246" type="line"/>
      <point x="282" y="710" type="line"/>
      <point x="76" y="710" type="line"/>
    </contour>
  </outline>
</glyph>
<glyph name="Ghestroke-cy" format="2">
  <advance width="578"/>
  <unicode hex="0492"/>
  <outline>
    <contour>
      <point x="-13" y="237" type="line"/>
      <point x="447" y="237" type="line"/>
      <point x="473" y="360" type="line"/>
      <point x="13" y="360" type="line"/>
    </contour>
    <component base="Ge-cy" xOffset="35"/>
  </outline>
</glyph>
<glyph name="ghestroke-cy" format="2">
  <advance width="499"/>
  <unicode hex="0493"/>
  <outline>
    <contour>
      <point x="41" y="0" type="line"/>
      <point x="231" y="0" type="line"/>
      <point x="308" y="361" type="line"/>
      <point x="496" y="361" type="line"/>
      <point x="531" y="526" type="line"/>
      <point x="153" y="526" type="line"/>
    </contour>
    <contour>
      <point x="0" y="147" type="line"/>
      <point x="395" y="147" type="line"/>
      <point x="419" y="260" type="line"/>
      <point x="24" y="260" type="line"/>
    </contour>
  </outline>
</glyph>
<glyph name="ghemiddlehook-cy" format="2">
  <advance width="563"/>
  <unicode hex="0495"/>
  <outline>
    <contour>
      <point x="-6" y="0" type="line"/>
      <point x="184" y="0" type="line"/>
      <point x="261" y="361" type="line"/>
      <point x="449" y="361" type="line"/>
      <point x="484" y="526" type="line"/>
      <point x="106" y="526" type="line"/>
    </contour>
    <contour>
      <point x="215" y="-213" type="curve" smooth="yes"/>
      <point x="396" y="-213"/>
      <point x="469" y="-110"/>
      <point x="501" y="43" type="curve" smooth="yes"/>
      <point x="536" y="211"/>
      <point x="480" y="295"/>
      <point x="354" y="295" type="curve" smooth="yes"/>
      <point x="287" y="295"/>
      <point x="230" y="267"/>
      <point x="190" y="225" type="curve"/>
      <point x="162" y="89" type="line"/>
      <point x="179" y="122"/>
      <point x="216" y="143"/>
      <point x="259" y="143" type="curve" smooth="yes"/>
      <point x="310" y="143"/>
      <point x="334" y="112"/>
      <point x="321" y="43" type="curve" smooth="yes"/>
      <point x="304" y="-36"/>
      <point x="268" y="-60"/>
      <point x="226" y="-60" type="curve" smooth="yes"/>
      <point x="197" y="-60"/>
      <point x="189" y="-37"/>
      <point x="189" y="-37" type="curve"/>
      <point x="47" y="-132" type="line"/>
      <point x="47" y="-132"/>
      <point x="93" y="-213"/>
    </contour>
  </outline>
</glyph>
<glyph name="Zhedescender-cy" format="2">
  <advance width="1145"/>
  <unicode hex="0496"/>
  <outline>
    <contour>
      <point x="873" y="-136" type="line"/>
      <point x="1038" y="-136" type="line"/>
      <point x="1104" y="170" type="line"/>
      <point x="889" y="170" type="line"/>
      <point x="852" y="0" type="line"/>
      <point x="902" y="0" type="line"/>
    </contour>
    <component base="Zhe-cy"/>
  </outline>
</glyph>
<glyph name="zhedescender-cy" format="2">
  <advance width="903"/>
  <unicode hex="0497"/>
  <outline>
    <contour>
      <point x="643" y="-132" type="line"/>
      <point x="813" y="-132" type="line"/>
      <point x="877" y="165" type="line"/>
      <point x="656" y="165" type="line"/>
      <point x="620" y="0" type="line"/>
      <point x="671" y="0" type="line"/>
    </contour>
    <component base="zhe-cy"/>
  </outline>
</glyph>
<glyph name="zedescender-cy" format="2">
  <advance width="514"/>
  <unicode hex="0499"/>
  <outline>
    <contour>
      <point x="97" y="-132" type="line"/>
      <point x="257" y="-132" type="line"/>
      <point x="303" y="82" type="line"/>
      <point x="142" y="80" type="line"/>
    </contour>
    <component base="ze-cy"/>
  </outline>
</glyph>
<glyph name="Kadescender-cy" format="2">
  <advance width="740"/>
  <unicode hex="049A"/>
  <outline>
    <contour>
      <point x="468" y="-136" type="line"/>
      <point x="633" y="-136" type="line"/>
      <point x="699" y="170" type="line"/>
      <point x="484" y="170" type="line"/>
      <point x="447" y="0" type="line"/>
      <point x="497" y="0" type="line"/>
    </contour>
    <component base="Ka-cy"/>
  </outline>
</glyph>
<glyph name="kadescender-cy" format="2">
  <advance width="620"/>
  <unicode hex="049B"/>
  <outline>
    <contour>
      <point x="360" y="-132" type="line"/>
      <point x="530" y="-132" type="line"/>
      <point x="594" y="165" type="line"/>
      <point x="373" y="165" type="line"/>
      <point x="337" y="0" type="line"/>
      <point x="388" y="0" type="line"/>
    </contour>
    <component base="ka-cy"/>
  </outline>
</glyph>
<glyph name="Kaverticalstroke-cy" format="2">
  <advance width="736"/>
  <unicode hex="049C"/>
  <outline>
    <contour>
      <point x="-14" y="0" type="line"/>
      <point x="180" y="0" type="line"/>
      <point x="239" y="282" type="line"/>
      <point x="370" y="282" type="line"/>
      <point x="448" y="0" type="line"/>
      <point x="660" y="0" type="line"/>
      <point x="549" y="367" type="line"/>
      <point x="787" y="710" type="line"/>
      <point x="587" y="710" type="line"/>
      <point x="402" y="439" type="line"/>
      <point x="273" y="439" type="line"/>
      <point x="330" y="710" type="line"/>
      <point x="136" y="710" type="line"/>
    </contour>
    <component base="verticalbar-cy.case" xOffset="205" yOffset="42"/>
  </outline>
</glyph>
<glyph name="kaverticalstroke-cy" format="2">
  <advance width="648"/>
  <unicode hex="049D"/>
  <outline>
    <contour>
      <point x="-6" y="0" type="line"/>
      <point x="173" y="0" type="line"/>
      <point x="215" y="197" type="line"/>
      <point x="325" y="197" type="line"/>
      <point x="405" y="0" type="line"/>
      <point x="607" y="0" type="line"/>
      <point x="488" y="268" type="line"/>
      <point x="555" y="326"/>
      <point x="631" y="414"/>
      <point x="680" y="526" type="curve"/>
      <point x="488" y="526" type="line"/>
      <point x="458" y="448"/>
      <point x="409" y="379"/>
      <point x="355" y="339" type="curve"/>
      <point x="245" y="339" type="line"/>
      <point x="285" y="526" type="line"/>
      <point x="106" y="526" type="line"/>
    </contour>
    <component base="verticalbar-cy" xOffset="171" yOffset="53"/>
  </outline>
</glyph>
<glyph name="kabashkir-cy" format="2">
  <advance width="664"/>
  <unicode hex="04A1"/>
  <outline>
    <contour>
      <point x="46" y="383" type="line"/>
      <point x="161" y="383" type="line"/>
      <point x="381" y="526" type="line"/>
      <point x="76" y="526" type="line"/>
    </contour>
    <component base="ka-cy" xOffset="86"/>
  </outline>
</glyph>
<glyph name="enghe-cy" format="2">
  <advance width="782"/>
  <unicode hex="04A5"/>
  <outline>
    <contour>
      <point x="590" y="361" type="line"/>
      <point x="778" y="361" type="line"/>
      <point x="814" y="526" type="line"/>
      <point x="446" y="526" type="line"/>
    </contour>
    <component base="en-cy"/>
  </outline>
</glyph>
<glyph name="esdescender-cy" format="2">
  <advance width="556"/>
  <unicode hex="04AB"/>
  <outline>
    <contour>
      <point x="151" y="-132" type="line"/>
      <point x="311" y="-132" type="line"/>
      <point x="357" y="82" type="line"/>
      <point x="196" y="80" type="line"/>
    </contour>
    <component base="es-cy" xOffset="1"/>
  </outline>
</glyph>
<glyph name="ustrait-cy" format="2">
  <advance width="548"/>
  <unicode hex="04AF"/>
  <outline>
    <contour>
      <point x="57" y="-213" type="line"/>
      <point x="247" y="-213" type="line"/>
      <point x="285" y="0" type="line"/>
      <point x="420" y="174"/>
      <point x="527" y="352"/>
      <point x="575" y="526" type="curve"/>
      <point x="405" y="526" type="line"/>
      <point x="354" y="378"/>
      <point x="321" y="297"/>
      <point x="240" y="149" type="curve"/>
      <point x="240" y="526" type="line"/>
      <point x="43" y="526" type="line"/>
      <point x="102" y="0" type="line"/>
    </contour>
  </outline>
</glyph>
<glyph name="Ustraitstroke-cy" format="2">
  <advance width="627"/>
  <unicode hex="04B0"/>
  <outline>
    <contour>
      <point x="91" y="119" type="line"/>
      <point x="464" y="119" type="line"/>
      <point x="490" y="239" type="line"/>
      <point x="117" y="239" type="line"/>
    </contour>
    <component base="Ustrait-cy"/>
  </outline>
</glyph>
<glyph name="Chekhakassian-cy" format="2">
  <advance width="698"/>
  <unicode hex="04CB"/>
  <outline>
    <contour>
      <point x="235" y="-136" type="line"/>
      <point x="400" y="-136" type="line"/>
      <point x="429" y="0" type="line"/>
      <point x="499" y="0" type="line"/>
      <point x="527" y="134" type="line"/>
      <point x="292" y="134" type="line"/>
    </contour>
    <component base="Che-cy"/>
  </outline>
</glyph>
<glyph name="chekhakassian-cy" format="2">
  <advance width="610"/>
  <unicode hex="04CC"/>
  <outline>
    <contour>
      <point x="180" y="-132" type="line"/>
      <point x="350" y="-132" type="line"/>
      <point x="378" y="0" type="line"/>
      <point x="484" y="0" type="line"/>
      <point x="505" y="100" type="line"/>
      <point x="228" y="100" type="line"/>
    </contour>
    <component base="che-cy" xOffset="10"/>
  </outline>
</glyph>
<glyph name="Obarred-cy" format="2">
  <advance width="765"/>
  <unicode hex="04E8"/>
  <outline>
    <contour>
      <point x="156" y="318" type="line"/>
      <point x="634" y="318" type="line"/>
      <point x="634" y="408" type="line"/>
      <point x="156" y="408" type="line"/>
    </contour>
    <component base="O-cy"/>
  </outline>
</glyph>
<glyph name="obarred-cy" format="2">
  <advance width="617"/>
  <unicode hex="04E9"/>
  <outline>
    <contour>
      <point x="121" y="227" type="line"/>
      <point x="501" y="227" type="line"/>
      <point x="501" y="302" type="line"/>
      <point x="121" y="302" type="line"/>
    </contour>
    <component base="o-cy" xOffset="-19"/>
  </outline>
</glyph>
<glyph name="gedescender-cy" format="2">
  <advance width="582"/>
  <unicode hex="04F7"/>
  <outline>
    <contour>
      <point x="303" y="-132" type="line"/>
      <point x="473" y="-132" type="line"/>
      <point x="521" y="90" type="line"/>
      <point x="335" y="3" type="line"/>
    </contour>
    <component base="ge-cy"/>
  </outline>
</glyph>
<glyph name="quotedblright" format="2">
  <advance width="509"/>
  <unicode hex="201D"/>
  <outline>
    <contour>
      <point x="338" y="501" type="line"/>
      <point x="468" y="501" type="line"/>
      <point x="536" y="627" type="line"/>
      <point x="571" y="792" type="line"/>
      <point x="373" y="792" type="line"/>
      <point x="339" y="632" type="line"/>
      <point x="391" y="632" type="line"/>
    </contour>
    <contour>
      <point x="108" y="501" type="line"/>
      <point x="238" y="501" type="line"/>
      <point x="306" y="627" type="line"/>
      <point x="341" y="792" type="line"/>
      <point x="143" y="792" type="line"/>
      <point x="109" y="632" type="line"/>
      <point x="161" y="632" type="line"/>
    </contour>
  </outline>
</glyph>
<glyph name="daggerdbl" format="2">
  <advance width="523"/>
  <unicode hex="2021"/>
  <outline>
    <contour>
      <point x="82" y="-130" type="line"/>
      <point x="261" y="-130" type="line"/>
      <point x="300" y="53" type="line"/>
      <point x="425" y="53" type="line"/>
      <point x="461" y="223" type="line"/>
      <point x="336" y="223" type="line"/>
      <point x="360" y="336" type="line"/>
      <point x="485" y="336" type="line"/>
      <point x="521" y="506" type="line"/>
      <point x="397" y="506" type="line"/>
      <point x="454" y="775" type="line"/>
      <point x="274" y="775" type="line"/>
      <point x="217" y="506" type="line"/>
      <point x="91" y="506" type="line"/>
      <point x="55" y="336" type="line"/>
      <point x="181" y="336" type="line"/>
      <point x="157" y="223" type="line"/>
      <point x="31" y="223" type="line"/>
      <point x="-5" y="53" type="line"/>
      <point x="120" y="53" type="line"/>
    </contour>
  </outline>
</glyph>
<glyph name="sixinferior" format="2">
  <advance width="430"/>
  <unicode hex="2086"/>
  <outline>
    <contour>
      <point x="347" y="145"/>
      <point x="347" y="79" type="curve" smooth="yes"/>
      <point x="347" y="-15"/>
      <point x="256" y="-96"/>
      <point x="134" y="-96" type="curve" smooth="yes"/>
      <point x="40" y="-96"/>
      <point x="-7" y="-36"/>
      <point x="-7" y="66" type="curve" smooth="yes"/>
      <point x="-7" y="234"/>
      <point x="97" y="354"/>
      <point x="246" y="354" type="curve" smooth="yes"/>
      <point x="302" y="354"/>
      <point x="351" y="334"/>
      <point x="381" y="295" type="curve"/>
      <point x="314" y="227" type="line"/>
      <point x="297" y="247"/>
      <point x="253" y="256"/>
      <point x="224" y="256" type="curve" smooth="yes"/>
      <point x="168" y="256"/>
      <point x="132" y="223"/>
      <point x="114" y="153" type="curve"/>
      <point x="142" y="178"/>
      <point x="173" y="191"/>
      <point x="218" y="191" type="curve" smooth="yes"/>
      <point x="302" y="191"/>
    </contour>
    <contour>
      <point x="117" y="-6"/>
      <point x="155" y="-6" type="curve" smooth="yes"/>
      <point x="199" y="-6"/>
      <point x="244" y="23"/>
      <point x="244" y="68" type="curve" smooth="yes"/>
      <point x="244" y="98"/>
      <point x="223" y="112"/>
      <point x="190" y="112" type="curve" smooth="yes"/>
      <point x="133" y="112"/>
      <point x="94" y="81"/>
      <point x="94" y="47" type="curve" smooth="yes"/>
      <point x="94" y="18"/>
    </contour>
  </outline>
</glyph>
<glyph name="seveninferior" format="2">
  <advance width="405"/>
  <unicode hex="2087"/>
  <outline>
    <contour>
      <point x="234" y="254" type="line"/>
      <point x="-39" y="-89" type="line"/>
      <point x="81" y="-89" type="line"/>
      <point x="412" y="351" type="line"/>
      <point x="51" y="351" type="line"/>
      <point x="28" y="254" type="line"/>
    </contour>
  </outline>
</glyph>
<glyph name="colonsign" format="2">
  <advance width="563"/>
  <unicode hex="20A1"/>
  <outline>
    <contour>
      <point x="10" y="374"/>
      <point x="10" y="211" type="curve" smooth="yes"/>
      <point x="10" y="92"/>
      <point x="83" y="-10"/>
      <point x="236" y="-10" type="curve" smooth="yes"/>
      <point x="358" y="-10"/>
      <point x="453" y="49"/>
      <point x="513" y="133" type="curve"/>
      <point x="340" y="189" type="line"/>
      <point x="319" y="164"/>
      <point x="295" y="150"/>
      <point x="269" y="150" type="curve" smooth="yes"/>
      <point x="232" y="150"/>
      <point x="208" y="181"/>
      <point x="208" y="232" type="curve" smooth="yes"/>
      <point x="208" y="318"/>
      <point x="261" y="376"/>
      <point x="317" y="376" type="curve" smooth="yes"/>
      <point x="344" y="376"/>
      <point x="362" y="362"/>
      <point x="372" y="337" type="curve"/>
      <point x="569" y="393" type="line"/>
      <point x="545" y="477"/>
      <point x="475" y="536"/>
      <point x="352" y="536" type="curve" smooth="yes"/>
      <point x="144" y="536"/>
    </contour>
    <contour>
      <point x="439" y="473" type="line"/>
      <point x="476" y="645" type="line"/>
      <point x="392" y="645" type="line"/>
      <point x="355" y="473" type="line"/>
    </contour>
    <contour>
      <point x="251" y="645" type="line"/>
      <point x="215" y="473" type="line"/>
      <point x="298" y="473" type="line"/>
      <point x="335" y="645" type="line"/>
    </contour>
    <contour>
      <point x="313" y="-120" type="line"/>
      <point x="349" y="52" type="line"/>
      <point x="266" y="52" type="line"/>
      <point x="229" y="-120" type="line"/>
    </contour>
    <contour>
      <point x="125" y="52" type="line"/>
      <point x="89" y="-120" type="line"/>
      <point x="172" y="-120" type="line"/>
      <point x="209" y="52" type="line"/>
    </contour>
  </outline>
</glyph>
<glyph name="increment" format="2">
  <advance width="677"/>
  <unicode hex="2206"/>
  <outline>
    <contour>
      <point x="633" y="150" type="line"/>
      <point x="397" y="710" type="line"/>
      <point x="239" y="710" type="line"/>
      <point x="2" y="150" type="line"/>
      <point x="2" y="0" type="line"/>
      <point x="633" y="0" type="line"/>
    </contour>
    <contour>
      <point x="451" y="170" type="line"/>
      <point x="191" y="170" type="line"/>
      <point x="318" y="497" type="line"/>
    </contour>
  </outline>
</glyph>
<glyph name="minus" format="2">
  <advance width="548"/>
  <unicode hex="2212"/>
  <outline>
    <contour>
      <point x="81" y="280" type="line"/>
      <point x="485" y="280" type="line"/>
      <point x="485" y="430" type="line"/>
      <point x="81" y="430" type="line"/>
    </contour>
  </outline>
</glyph>
<glyph name="bulletoperator" format="2">
  <advance width="254"/>
  <unicode hex="2219"/>
  <outline>
    <contour>
      <point x="36" y="238" type="line"/>
      <point x="190" y="238" type="line"/>
      <point x="229" y="422" type="line"/>
      <point x="75" y="422" type="line"/>
    </contour>
  </outline>
</glyph>
<glyph name="radical" format="2">
  <advance width="576"/>
  <unicode hex="221A"/>
  <outline>
    <contour>
      <point x="213" y="0" type="line"/>
      <point x="457" y="0" type="line"/>
      <point x="609" y="790" type="line"/>
      <point x="445" y="790" type="line"/>
      <point x="333" y="127" type="line"/>
      <point x="260" y="395" type="line"/>
      <point x="99" y="395" type="line"/>
    </contour>
    <contour>
      <point x="13" y="395" type="line"/>
      <point x="13" y="266" type="line"/>
      <point x="197" y="266" type="line"/>
      <point x="197" y="395" type="line"/>
    </contour>
  </outline>
</glyph>
<glyph name="integral" format="2">
  <advance width="417"/>
  <unicode hex="222B"/>
  <outline>
    <contour>
      <point x="107" y="551" type="curve" smooth="yes"/>
      <point x="129" y="149" type="line" smooth="yes"/>
      <point x="129" y="147"/>
      <point x="134" y="48"/>
      <point x="134" y="46" type="curve" smooth="yes"/>
      <point x="134" y="11"/>
      <point x="118" y="-8"/>
      <point x="88" y="-8" type="curve" smooth="yes"/>
      <point x="75" y="-8"/>
      <point x="59" y="-2"/>
      <point x="45" y="7" type="curve"/>
      <point x="19" y="-133" type="line"/>
      <point x="65" y="-154"/>
      <point x="127" y="-167"/>
      <point x="177" y="-167" type="curve" smooth="yes"/>
      <point x="274" y="-167"/>
      <point x="327" y="-118"/>
      <point x="327" y="-27" type="curve" smooth="yes"/>
      <point x="327" y="-23"/>
      <point x="321" y="104"/>
      <point x="321" y="108" type="curve" smooth="yes"/>
      <point x="298" y="519" type="line" smooth="yes"/>
      <point x="298" y="521"/>
      <point x="294" y="605"/>
      <point x="294" y="607" type="curve" smooth="yes"/>
      <point x="294" y="642"/>
      <point x="310" y="661"/>
      <point x="340" y="661" type="curve" smooth="yes"/>
      <point x="353" y="661"/>
      <point x="369" y="655"/>
      <point x="383" y="646" type="curve"/>
      <point x="409" y="786" type="line"/>
      <point x="363" y="807"/>
      <point x="301" y="820"/>
      <point x="251" y="820" type="curve" smooth="yes"/>
      <point x="154" y="820"/>
      <point x="101" y="770"/>
      <point x="101" y="680" type="curve" smooth="yes"/>
      <point x="101" y="676"/>
      <point x="107" y="555"/>
    </contour>
  </outline>
</glyph>
<glyph name="fl" format="2">
  <advance width="692"/>
  <unicode hex="FB02"/>
  <outline>
    <contour>
      <point x="394" y="-9"/>
      <point x="481" y="-9" type="curve" smooth="yes"/>
      <point x="552" y="-9"/>
      <point x="634" y="21"/>
      <point x="638" y="24" type="curve"/>
      <point x="648" y="176" type="line"/>
      <point x="646" y="176"/>
      <point x="611" y="160"/>
      <point x="590" y="160" type="curve" smooth="yes"/>
      <point x="568" y="160"/>
      <point x="561" y="178"/>
      <point x="561" y="197" type="curve" smooth="yes"/>
      <point x="561" y="204"/>
      <point x="562" y="210"/>
      <point x="563" y="217" type="curve" smooth="yes"/>
      <point x="625" y="510" type="line" smooth="yes"/>
      <point x="630" y="533"/>
      <point x="632" y="555"/>
      <point x="632" y="575" type="curve" smooth="yes"/>
      <point x="632" y="677"/>
      <point x="568" y="740"/>
      <point x="420" y="740" type="curve" smooth="yes"/>
      <point x="277" y="740"/>
      <point x="163" y="679"/>
      <point x="133" y="540" type="curve" smooth="yes"/>
      <point x="117" y="465" type="line"/>
      <point x="56" y="465" type="line"/>
      <point x="25" y="322" type="line"/>
      <point x="86" y="322" type="line"/>
      <point x="18" y="0" type="line"/>
      <point x="208" y="0" type="line"/>
      <point x="276" y="322" type="line"/>
      <point x="339" y="322" type="line"/>
      <point x="369" y="465" type="line"/>
      <point x="307" y="465" type="line"/>
      <point x="313" y="494" type="line" smooth="yes"/>
      <point x="323" y="545"/>
      <point x="345" y="580"/>
      <point x="395" y="580" type="curve" smooth="yes"/>
      <point x="425" y="580"/>
      <point x="436" y="566"/>
      <point x="436" y="537" type="curve" smooth="yes"/>
      <point x="436" y="521"/>
      <point x="432" y="499"/>
      <point x="427" y="473" type="curve" smooth="yes"/>
      <point x="351" y="117" type="line" smooth="yes"/>
      <point x="349" y="109"/>
      <point x="348" y="101"/>
      <point x="348" y="93" type="curve" smooth="yes"/>
      <point x="348" y="36"/>
    </contour>
  </outline>
</glyph>
<glyph name="De-cy.loclBGR" format="2">
  <advance width="787"/>
  <outline>
    <contour>
      <point x="17" y="70" type="line"/>
      <point x="216" y="70" type="line"/>
      <point x="440" y="489" type="line"/>
      <point x="465" y="70" type="line"/>
      <point x="656" y="70" type="line"/>
      <point x="577" y="710" type="line"/>
      <point x="398" y="710" type="line"/>
    </contour>
    <contour>
      <point x="-75" y="-136" type="line"/>
      <point x="95" y="-136" type="line"/>
      <point x="124" y="0" type="line"/>
      <point x="536" y="0" type="line"/>
      <point x="507" y="-136" type="line"/>
      <point x="677" y="-136" type="line"/>
      <point x="742" y="170" type="line"/>
      <point x="-10" y="170" type="line"/>
    </contour>
  </outline>
</glyph>
<glyph name="El-cy.loclBGR" format="2">
  <advance width="636"/>
  <outline>
    <contour>
      <point x="-61" y="0" type="line"/>
      <point x="138" y="0" type="line"/>
      <point x="362" y="489" type="line"/>
      <point x="380" y="0" type="line"/>
      <point x="578" y="0" type="line"/>
      <point x="499" y="710" type="line"/>
      <point x="320" y="710" type="line"/>
    </contour>
  </outline>
</glyph>
<glyph name="Esdescender-cy.loclBSH" format="2">
  <advance width="708"/>
  <outline>
    <contour>
      <point x="193" y="-135" type="line"/>
      <point x="364" y="-135" type="line"/>
      <point x="412" y="101" type="line"/>
      <point x="241" y="101" type="line"/>
    </contour>
    <component base="Es-cy"/>
  </outline>
</glyph>
<glyph name="a.sc" format="2">
  <advance width="580"/>
  <anchor x="570" y="8" name="bottom"/>
  <anchor x="266" y="707" name="top"/>
  <outline>
    <contour>
      <point x="281" y="568" type="line"/>
      <point x="-67" y="0" type="line"/>
      <point x="114" y="0" type="line"/>
      <point x="171" y="102" type="line"/>
      <point x="330" y="102" type="line"/>
      <point x="345" y="0" type="line"/>
      <point x="524" y="0" type="line"/>
      <point x="419" y="568" type="line"/>
    </contour>
    <contour>
      <point x="324" y="250" type="line"/>
      <point x="238" y="250" type="line"/>
      <point x="306" y="363" type="line"/>
    </contour>
  </outline>
</glyph>
<glyph name="c_t" format="2">
  <advance width="968"/>
  <outline>
    <contour>
      <point x="81" y="-10"/>
      <point x="233" y="-10" type="curve" smooth="yes"/>
      <point x="356" y="-10"/>
      <point x="451" y="49"/>
      <point x="510" y="133" type="curve"/>
      <point x="337" y="189" type="line"/>
      <point x="316" y="164"/>
      <point x="293" y="150"/>
      <point x="266" y="150" type="curve" smooth="yes"/>
      <point x="229" y="150"/>
      <point x="205" y="181"/>
      <point x="205" y="232" type="curve" smooth="yes"/>
      <point x="205" y="318"/>
      <point x="260" y="376"/>
      <point x="314" y="376" type="curve" smooth="yes"/>
      <point x="341" y="376"/>
      <point x="359" y="362"/>
      <point x="369" y="337" type="curve"/>
      <point x="566" y="393" type="line"/>
      <point x="561" y="416"/>
      <point x="556" y="466"/>
      <point x="556" y="507" type="curve" smooth="yes"/>
      <point x="556" y="576"/>
      <point x="568" y="651"/>
      <point x="650" y="651" type="curve" smooth="yes"/>
      <point x="681" y="651"/>
      <point x="694" y="636"/>
      <point x="694" y="599" type="curve" smooth="yes"/>
      <point x="694" y="581"/>
      <point x="691" y="557"/>
      <point x="685" y="526" type="curve"/>
      <point x="624" y="526" type="line"/>
      <point x="593" y="383" type="line"/>
      <point x="654" y="383" type="line"/>
      <point x="603" y="142" type="line" smooth="yes"/>
      <point x="599" y="125"/>
      <point x="598" y="110"/>
      <point x="598" y="96" type="curve" smooth="yes"/>
      <point x="598" y="17"/>
      <point x="653" y="-11"/>
      <point x="725" y="-11" type="curve" smooth="yes"/>
      <point x="780" y="-11"/>
      <point x="846" y="6"/>
      <point x="904" y="29" type="curve"/>
      <point x="902" y="179" type="line"/>
      <point x="876" y="169"/>
      <point x="851" y="162"/>
      <point x="835" y="162" type="curve" smooth="yes"/>
      <point x="816" y="162"/>
      <point x="805" y="170"/>
      <point x="805" y="191" type="curve" smooth="yes"/>
      <point x="805" y="196"/>
      <point x="805" y="202"/>
      <point x="807" y="209" type="curve" smooth="yes"/>
      <point x="844" y="383" type="line"/>
      <point x="941" y="383" type="line"/>
      <point x="971" y="526" type="line"/>
      <point x="875" y="526" type="line"/>
      <point x="881" y="554"/>
      <point x="887" y="585"/>
      <point x="887" y="613" type="curve" smooth="yes"/>
      <point x="887" y="676"/>
      <point x="857" y="730"/>
      <point x="725" y="730" type="curve" smooth="yes"/>
      <point x="569" y="730"/>
      <point x="483" y="660"/>
      <point x="483" y="530" type="curve" smooth="yes"/>
      <point x="483" y="523"/>
      <point x="483" y="506"/>
      <point x="484" y="499" type="curve"/>
      <point x="446" y="523"/>
      <point x="416" y="536"/>
      <point x="356" y="536" type="curve" smooth="yes"/>
      <point x="135" y="536"/>
      <point x="7" y="372"/>
      <point x="7" y="211" type="curve" smooth="yes"/>
      <point x="7" y="91"/>
    </contour>
  </outline>
</glyph>
<glyph name="cedi" format="2">
  <advance width="664"/>
  <outline>
    <contour>
      <point x="265" y="95" type="line"/>
      <point x="214" y="-129" type="line"/>
      <point x="290" y="-129" type="line"/>
      <point x="341" y="95" type="line"/>
    </contour>
    <contour>
      <point x="437" y="815" type="line"/>
      <point x="390" y="609" type="line"/>
      <point x="469" y="623" type="line"/>
      <point x="513" y="815" type="line"/>
    </contour>
    <component base="C"/>
  </outline>
</glyph>
<glyph name="d.sc" format="2">
  <advance width="625"/>
  <anchor x="293" y="707" name="top"/>
  <outline>
    <contour>
      <point x="112" y="568" type="line"/>
      <point x="-9" y="0" type="line"/>
      <point x="226" y="0" type="line"/>
      <point x="441" y="0"/>
      <point x="602" y="142"/>
      <point x="602" y="340" type="curve" smooth="yes"/>
      <point x="602" y="468"/>
      <point x="520" y="568"/>
      <point x="347" y="568" type="curve" smooth="yes"/>
    </contour>
    <contour>
      <point x="257" y="148" type="curve" smooth="yes"/>
      <point x="192" y="148" type="line"/>
      <point x="250" y="420" type="line"/>
      <point x="315" y="420" type="line" smooth="yes"/>
      <point x="387" y="420"/>
      <point x="426" y="378"/>
      <point x="426" y="314" type="curve" smooth="yes"/>
      <point x="426" y="223"/>
      <point x="359" y="148"/>
    </contour>
  </outline>
</glyph>
<glyph name="d.ss03" format="2">
  <advance width="627"/>
  <outline>
    <contour>
      <point x="77" y="-10"/>
      <point x="193" y="-10" type="curve" smooth="yes"/>
      <point x="258" y="-10"/>
      <point x="302" y="16"/>
      <point x="341" y="69" type="curve"/>
      <point x="326" y="0" type="line"/>
      <point x="515" y="0" type="line"/>
      <point x="670" y="730" type="line"/>
      <point x="480" y="730" type="line"/>
      <point x="420" y="448" type="line"/>
      <point x="405" y="503"/>
      <point x="355" y="536"/>
      <point x="290" y="536" type="curve" smooth="yes"/>
      <point x="141" y="536"/>
      <point x="7" y="383"/>
      <point x="7" y="202" type="curve" smooth="yes"/>
      <point x="7" y="77"/>
    </contour>
    <contour>
      <point x="312" y="150"/>
      <point x="278" y="150" type="curve" smooth="yes"/>
      <point x="234" y="150"/>
      <point x="207" y="183"/>
      <point x="207" y="234" type="curve" smooth="yes"/>
      <point x="207" y="307"/>
      <point x="263" y="376"/>
      <point x="318" y="376" type="curve" smooth="yes"/>
      <point x="354" y="376"/>
      <point x="382" y="346"/>
      <point x="390" y="298" type="curve"/>
      <point x="370" y="204" type="line"/>
      <point x="337" y="168"/>
    </contour>
  </outline>
</glyph>
<glyph name="descender-cy.case" format="2">
  <advance width="280"/>
  <anchor x="-4" y="0" name="_bottomright"/>
  <outline>
    <contour>
      <point x="37" y="-136" type="line"/>
      <point x="202" y="-136" type="line"/>
      <point x="268" y="170" type="line"/>
      <point x="33" y="170" type="line"/>
      <point x="-4" y="0" type="line"/>
      <point x="66" y="0" type="line"/>
    </contour>
  </outline>
</glyph>
<glyph name="dotaccentcomb" format="2">
  <anchor x="191" y="526" name="_top"/>
  <anchor x="234" y="730" name="top"/>
  <outline>
    <contour>
      <point x="117" y="580" type="line"/>
      <point x="287" y="580" type="line"/>
      <point x="319" y="730" type="line"/>
      <point x="149" y="730" type="line"/>
    </contour>
  </outline>
</glyph>
<glyph name="eight.lf" format="2">
  <advance width="591"/>
  <outline>
    <contour>
      <point x="538" y="102"/>
      <point x="538" y="254" type="curve" smooth="yes"/>
      <point x="538" y="311"/>
      <point x="513" y="355"/>
      <point x="490" y="379" type="curve"/>
      <point x="535" y="405"/>
      <point x="580" y="469"/>
      <point x="580" y="534" type="curve" smooth="yes"/>
      <point x="580" y="649"/>
      <point x="475" y="710"/>
      <point x="381" y="710" type="curve" smooth="yes"/>
      <point x="265" y="710"/>
      <point x="96" y="623"/>
      <point x="96" y="474" type="curve" smooth="yes"/>
      <point x="96" y="437"/>
      <point x="109" y="397"/>
      <point x="132" y="379" type="curve"/>
      <point x="84" y="345"/>
      <point x="17" y="284"/>
      <point x="17" y="186" type="curve" smooth="yes"/>
      <point x="17" y="66"/>
      <point x="111" y="-10"/>
      <point x="229" y="-10" type="curve" smooth="yes"/>
      <point x="389" y="-10"/>
    </contour>
    <contour>
      <point x="345" y="282"/>
      <point x="345" y="248" type="curve" smooth="yes"/>
      <point x="345" y="202"/>
      <point x="310" y="163"/>
      <point x="265" y="163" type="curve" smooth="yes"/>
      <point x="234" y="163"/>
      <point x="215" y="187"/>
      <point x="215" y="218" type="curve" smooth="yes"/>
      <point x="215" y="265"/>
      <point x="249" y="301"/>
      <point x="295" y="301" type="curve" smooth="yes"/>
      <point x="327" y="301"/>
    </contour>
    <contour>
      <point x="289" y="455"/>
      <point x="289" y="482" type="curve" smooth="yes"/>
      <point x="289" y="515"/>
      <point x="314" y="543"/>
      <point x="346" y="543" type="curve" smooth="yes"/>
      <point x="370" y="543"/>
      <point x="383" y="526"/>
      <point x="383" y="504" type="curve" smooth="yes"/>
      <point x="383" y="464"/>
      <point x="351" y="442"/>
      <point x="324" y="442" type="curve" smooth="yes"/>
      <point x="306" y="442"/>
    </contour>
  </outline>
</glyph>
<glyph name="f_f" format="2">
  <advance width="672"/>
  <outline>
    <contour>
      <point x="86" y="322" type="line"/>
      <point x="18" y="0" type="line"/>
      <point x="208" y="0" type="line"/>
      <point x="276" y="322" type="line"/>
      <point x="366" y="322" type="line"/>
      <point x="297" y="0" type="line"/>
      <point x="487" y="0" type="line"/>
      <point x="556" y="322" type="line"/>
      <point x="661" y="322" type="line"/>
      <point x="691" y="465" type="line"/>
      <point x="586" y="465" type="line"/>
      <point x="600" y="529" type="line" smooth="yes"/>
      <point x="607" y="563"/>
      <point x="623" y="580"/>
      <point x="650" y="580" type="curve" smooth="yes"/>
      <point x="666" y="580"/>
      <point x="693" y="574"/>
      <point x="713" y="566" type="curve"/>
      <point x="775" y="710" type="line"/>
      <point x="726" y="730"/>
      <point x="680" y="740"/>
      <point x="642" y="740" type="curve" smooth="yes"/>
      <point x="581" y="740"/>
      <point x="529" y="716"/>
      <point x="488" y="676" type="curve"/>
      <point x="440" y="696"/>
      <point x="396" y="706"/>
      <point x="357" y="706" type="curve" smooth="yes"/>
      <point x="242" y="706"/>
      <point x="151" y="620"/>
      <point x="122" y="488" type="curve" smooth="yes"/>
      <point x="117" y="465" type="line"/>
      <point x="56" y="465" type="line"/>
      <point x="25" y="322" type="line"/>
    </contour>
    <contour>
      <point x="396" y="465" type="curve"/>
      <point x="307" y="465" type="line"/>
      <point x="313" y="495" type="line" smooth="yes"/>
      <point x="320" y="529"/>
      <point x="337" y="546"/>
      <point x="363" y="546" type="curve" smooth="yes"/>
      <point x="377" y="546"/>
      <point x="394" y="542"/>
      <point x="410" y="537" type="curve"/>
      <point x="406" y="513"/>
      <point x="401" y="489"/>
    </contour>
  </outline>
</glyph>
<glyph name="figuredash" format="2">
  <advance width="475"/>
  <outline>
    <contour>
      <point x="35" y="191" type="line"/>
      <point x="408" y="191" type="line"/>
      <point x="446" y="361" type="line"/>
      <point x="73" y="361" type="line"/>
    </contour>
  </outline>
</glyph>
<glyph name="hungarumlautcomb" format="2">
  <anchor x="274" y="526" name="_top"/>
  <anchor x="330" y="730" name="top"/>
  <outline>
    <contour>
      <point x="218" y="579" type="line"/>
      <point x="324" y="730" type="line"/>
      <point x="186" y="730" type="line"/>
      <point x="119" y="588" type="line"/>
    </contour>
    <contour>
      <point x="403" y="579" type="line"/>
      <point x="509" y="730" type="line"/>
      <point x="371" y="730" type="line"/>
      <point x="305" y="588" type="line"/>
    </contour>
  </outline>
</glyph>
<glyph name="iu-cy.loclBGR" format="2">
  <advance width="898"/>
  <outline>
    <contour>
      <point x="-16" y="0" type="line"/>
      <point x="174" y="0" type="line"/>
      <point x="214.515" y="191" type="line"/>
      <point x="336" y="191" type="line"/>
      <point x="374" y="334" type="line"/>
      <point x="244.721" y="334" type="line"/>
      <point x="330" y="730" type="line"/>
      <point x="140" y="730" type="line"/>
    </contour>
    <component base="o-cy" xOffset="262"/>
  </outline>
</glyph>
<glyph name="k.sc" format="2">
  <advance width="603"/>
  <anchor x="254" y="0" name="bottom"/>
  <outline>
    <contour>
      <point x="112" y="568" type="line"/>
      <point x="-9" y="0" type="line"/>
      <point x="161" y="0" type="line"/>
      <point x="197" y="168" type="line"/>
      <point x="260" y="218" type="line"/>
      <point x="373" y="0" type="line"/>
      <point x="551" y="0" type="line"/>
      <point x="381" y="313" type="line"/>
      <point x="656" y="568" type="line"/>
      <point x="481" y="568" type="line"/>
      <point x="235" y="350" type="line"/>
      <point x="282" y="568" type="line"/>
    </contour>
  </outline>
</glyph>
<glyph name="minute" format="2">
  <advance width="270"/>
  <outline>
    <contour>
      <point x="103" y="496" type="line"/>
      <point x="224" y="496" type="line"/>
      <point x="316" y="730" type="line"/>
      <point x="160" y="730" type="line"/>
    </contour>
  </outline>
</glyph>
<glyph name="ogonekcomb" format="2">
  <anchor x="167" y="1" name="_ogonek"/>
  <outline>
    <contour>
      <point x="-31" y="-125" type="curve" smooth="yes"/>
      <point x="-31" y="-167"/>
      <point x="11" y="-203"/>
      <point x="80" y="-214" type="curve"/>
      <point x="137" y="-114" type="line"/>
      <point x="104" y="-114"/>
      <point x="92" y="-101"/>
      <point x="92" y="-82" type="curve" smooth="yes"/>
      <point x="92" y="-58"/>
      <point x="122" y="-28"/>
      <point x="167" y="1" type="curve"/>
      <point x="165" y="25" type="line"/>
      <point x="101" y="25" type="line"/>
      <point x="16" y="-18"/>
      <point x="-31" y="-77"/>
    </contour>
  </outline>
</glyph>
<glyph name="one.lf" format="2">
  <advance width="534"/>
  <outline>
    <contour>
      <point x="35" y="170" type="line"/>
      <point x="-1" y="0" type="line"/>
      <point x="449" y="0" type="line"/>
      <point x="485" y="170" type="line"/>
      <point x="365" y="170" type="line"/>
      <point x="480" y="715" type="line"/>
      <point x="286" y="715" type="line"/>
      <point x="284" y="711"/>
      <point x="177" y="620"/>
      <point x="109" y="620" type="curve"/>
      <point x="72" y="446" type="line"/>
      <point x="123" y="446"/>
      <point x="220" y="501"/>
      <point x="248" y="532" type="curve"/>
      <point x="171" y="170" type="line"/>
    </contour>
  </outline>
</glyph>
<glyph name="seven.dnom" format="2">
  <advance width="405"/>
  <outline>
    <contour>
      <point x="248" y="344" type="line"/>
      <point x="-25" y="1" type="line"/>
      <point x="95" y="1" type="line"/>
      <point x="426" y="441" type="line"/>
      <point x="65" y="441" type="line"/>
      <point x="42" y="344" type="line"/>
    </contour>
  </outline>
</glyph>
<glyph name="two.numr" format="2">
  <advance width="428"/>
  <outline>
    <contour>
      <point x="22" y="287" type="curve"/>
      <point x="379" y="287" type="line"/>
      <point x="404" y="394" type="line"/>
      <point x="225" y="394" type="line"/>
      <point x="231" y="422"/>
      <point x="267" y="433"/>
      <point x="305" y="446" type="curve" smooth="yes"/>
      <point x="356" y="463"/>
      <point x="452" y="508"/>
      <point x="452" y="620" type="curve" smooth="yes"/>
      <point x="452" y="690"/>
      <point x="402" y="732"/>
      <point x="310" y="732" type="curve" smooth="yes"/>
      <point x="230" y="732"/>
      <point x="147" y="702"/>
      <point x="109" y="662" type="curve"/>
      <point x="157" y="582" type="line"/>
      <point x="187" y="608"/>
      <point x="231" y="635"/>
      <point x="277" y="635" type="curve" smooth="yes"/>
      <point x="307" y="635"/>
      <point x="329" y="620"/>
      <point x="329" y="593" type="curve" smooth="yes"/>
      <point x="329" y="539"/>
      <point x="251" y="518"/>
      <point x="188" y="489" type="curve" smooth="yes"/>
      <point x="78" y="438"/>
      <point x="47" y="393"/>
    </contour>
  </outline>
</glyph>
<glyph name="verticalbar-cy.case" format="2">
  <advance width="269"/>
  <anchor x="147" y="323" name="_center"/>
  <outline>
    <contour>
      <point x="74" y="142" type="line"/>
      <point x="139" y="142" type="line"/>
      <point x="220" y="503" type="line"/>
      <point x="155" y="503" type="line"/>
    </contour>
  </outline>
</glyph>
<glyph name="verticallinemod" format="2">
  <advance width="239"/>
  <outline>
    <contour>
      <point x="260" y="775" type="line"/>
      <point x="100" y="775" type="line"/>
      <point x="100" y="391" type="line"/>
      <point x="260" y="391" type="line"/>
    </contour>
  </outline>
</glyph>
<glyph name="w.sc" format="2">
  <advance width="915"/>
  <anchor x="438" y="707" name="top"/>
  <outline>
    <contour>
      <point x="46" y="568" type="line"/>
      <point x="164" y="0" type="line"/>
      <point x="305" y="0" type="line"/>
      <point x="431" y="192" type="line"/>
      <point x="476" y="0" type="line"/>
      <point x="617" y="0" type="line"/>
      <point x="977" y="568" type="line"/>
      <point x="791" y="568" type="line"/>
      <point x="576" y="204" type="line"/>
      <point x="562" y="293" type="line"/>
      <point x="721" y="568" type="line"/>
      <point x="564" y="568" type="line"/>
      <point x="475" y="397" type="line"/>
      <point x="458" y="568" type="line"/>
      <point x="302" y="568" type="line"/>
      <point x="342" y="293" type="line"/>
      <point x="292" y="204" type="line"/>
      <point x="230" y="568" type="line"/>
    </contour>
  </outline>
</glyph>
<glyph name="zero.lf" format="2">
  <advance width="689"/>
  <outline>
    <contour>
      <point x="110" y="-10"/>
      <point x="278" y="-10" type="curve" smooth="yes"/>
      <point x="496" y="-10"/>
      <point x="671" y="221"/>
      <point x="671" y="416" type="curve" smooth="yes"/>
      <point x="671" y="553"/>
      <point x="600" y="710"/>
      <point x="431" y="710" type="curve" smooth="yes"/>
      <point x="214" y="710"/>
      <point x="38" y="477"/>
      <point x="38" y="281" type="curve" smooth="yes"/>
      <point x="38" y="143"/>
    </contour>
    <contour>
      <point x="419" y="163"/>
      <point x="315" y="163" type="curve" smooth="yes"/>
      <point x="257" y="163"/>
      <point x="236" y="215"/>
      <point x="236" y="276" type="curve" smooth="yes"/>
      <point x="236" y="367"/>
      <point x="289" y="537"/>
      <point x="395" y="537" type="curve" smooth="yes"/>
      <point x="452" y="537"/>
      <point x="473" y="473"/>
      <point x="473" y="408" type="curve" smooth="yes"/>
      <point x="473" y="317"/>
    </contour>
  </outline>
</glyph>
